<svg xmlns="http://www.w3.org/2000/svg" xmlns:xlink="http://www.w3.org/1999/xlink" fill="none" version="1.1" width="15.75" height="14" viewBox="0 0 15.75 14"><defs><clipPath id="master_svg0_1_122"><rect x="0" y="0" width="15.75" height="14" rx="0"/></clipPath></defs><g clip-path="url(#master_svg0_1_122)"><g transform="matrix(1,0,0,-1,0,28.6015625)"><g><path d="M-0.0274658203125,27.64458125Q0.0274122796875,28.24608125,0.6310711796875,28.30078125L1.8932641796875,28.30078125Q2.8261941796875,28.24608125,3.2652141796875,27.42578125L14.5426341796875,27.42578125Q15.0914341796875,27.39848125,15.4207341796875,26.98828125Q15.7225341796875,26.57808125,15.6127341796875,26.05858125L14.4877341796875,21.87500125Q14.2957341796875,21.21875125,13.7743341796875,20.83594125Q13.2530341796875,20.42578125,12.5670341796875,20.42578125L4.6646041796875,20.42578125L4.8018041796875,19.63281125Q4.9389941796875,19.14062125,5.4603441796875,19.11328125L13.3627341796875,19.11328125Q13.9664341796875,19.05859125,14.0213341796875,18.45703125Q13.9664341796875,17.85547125,13.3627341796875,17.80078125L5.4603441796875,17.80078125Q4.7194841796875,17.80078125,4.1981441796875,18.26562125Q3.6493641796875,18.70312125,3.5121641796875,19.38672125L2.0853341796875,26.79688125Q2.0579041796875,26.98828125,1.8932641796875,26.98828125L0.6310711796875,26.98828125Q0.0274122796875,27.04298125,-0.0274658203125,27.64458125ZM3.4847341796875,15.61328125Q3.5121641796875,16.35156125,4.1432641796875,16.76172125Q4.8018041796875,17.08984125,5.4603441796875,16.76172125Q6.0914341796875,16.35156125,6.1188741796875,15.61328125Q6.0914341796875,14.87500025,5.4603441796875,14.46484325Q4.8018041796875,14.13671925,4.1432641796875,14.46484325Q3.5121641796875,14.87500025,3.4847341796875,15.61328125ZM12.7042341796875,16.92578125Q13.4451341796875,16.89844125,13.8566341796875,16.26953125Q14.1859341796875,15.61328125,13.8566341796875,14.95703125Q13.4451341796875,14.32812505,12.7042341796875,14.30078125Q11.9634341796875,14.32812505,11.5518341796875,14.95703125Q11.2225341796875,15.61328125,11.5518341796875,16.26953125Q11.9634341796875,16.89844125,12.7042341796875,16.92578125Z" fill="#07C160" fill-opacity="1" style="mix-blend-mode:passthrough"/></g></g></g></svg>