<svg xmlns="http://www.w3.org/2000/svg" xmlns:xlink="http://www.w3.org/1999/xlink" fill="none" version="1.1" width="15.75" height="14" viewBox="0 0 15.75 14"><defs><clipPath id="master_svg0_1_112"><rect x="0" y="0" width="15.75" height="14" rx="0"/></clipPath></defs><g clip-path="url(#master_svg0_1_112)"><g transform="matrix(1,0,0,-1,0,28.6015625)"><g><path d="M15.736371875,21.30078125Q15.709071875,20.94531125,15.463371875,20.69922125Q15.217771875,20.45312125,14.862871875,20.42578125L13.989371875,20.42578125L14.016671875,16.05078125Q13.989371875,15.94141125,13.989371875,15.83203125L13.989371875,15.39453125Q13.989371875,14.92968725,13.661871875,14.62890625Q13.361571875,14.30078125,12.897571875,14.30078125L12.460771875,14.30078125Q12.406171875,14.30078125,12.378971875,14.30078125Q12.324371875,14.30078125,12.269771875,14.30078125L11.368971875,14.30078125L10.713871875,14.30078125Q10.249771875,14.30078125,9.949541875,14.62890625Q9.621991875,14.92968725,9.621991875,15.39453125L9.621991875,16.05078125L9.621991875,17.80078125Q9.621991875,18.18359125,9.376321875,18.42969125Q9.130651875,18.67578125,8.748511875,18.67578125L7.001541875,18.67578125Q6.619391875,18.67578125,6.373721875,18.42969125Q6.128051875,18.18359125,6.128051875,17.80078125L6.128051875,16.05078125L6.128051875,15.39453125Q6.128051875,14.92968725,5.800501875,14.62890625Q5.500241875,14.30078125,5.036201875,14.30078125L4.381091875,14.30078125L3.507601875,14.30078125Q3.480311875,14.30078125,3.453011875,14.30078125Q3.425721875,14.30078125,3.398421875,14.30078125Q3.343831875,14.30078125,3.289231875,14.30078125L2.852491875,14.30078125Q2.388451875,14.30078125,2.088191875,14.62890625Q1.760641875,14.92968725,1.760641875,15.39453125L1.760641875,18.45703125Q1.760641875,18.48437125,1.760641875,18.53906125L1.760641875,20.42578125L0.887155875,20.42578125Q0.5050058749999999,20.45312125,0.25933887499999997,20.69922125Q0.013671875,20.94531125,0.013671875,21.32812125Q0.013671875,21.68359125,0.286635875,21.98437125L7.274501875,28.08208125Q7.574761875,28.32808125,7.875021875,28.30078125Q8.202581875,28.30078125,8.448251875,28.10938125L15.436071875,21.95703125Q15.763671875,21.68359125,15.736371875,21.30078125Z" fill="#07C160" fill-opacity="1" style="mix-blend-mode:passthrough"/></g></g></g></svg>