<svg xmlns="http://www.w3.org/2000/svg" xmlns:xlink="http://www.w3.org/1999/xlink" fill="none" version="1.1" width="35" height="28" viewBox="0 0 35 28"><g><path d="M8.54,18.54Q8.8,18.54,8.95,18.78Q9.1,19.02,9.1,19.44Q9.1,20.24,8.72,20.68Q7.86,21.74,6.85,22.42Q5.84,23.1,4.56,23.1Q2.8,23.1,1.95,21.5Q1.1,19.9,1.1,17.36Q1.1,14.92,1.73,11.8Q2.36,8.68,3.59,6.44Q4.82,4.2,6.52,4.2Q7.48,4.2,8.03,5.09Q8.58,5.98,8.58,7.64Q8.58,10.02,7.26,13.16Q5.94,16.3,3.68,19.38Q3.82,20.2,4.14,20.55Q4.46,20.9,4.98,20.9Q5.8,20.9,6.42,20.43Q7.04,19.96,8,18.82Q8.24,18.54,8.54,18.54ZM6.08,6.18Q5.62,6.18,5.04,7.84Q4.46,9.5,4.02,11.96Q3.58,14.42,3.54,16.68Q4.96,14.34,5.8,11.99Q6.64,9.64,6.64,7.7Q6.64,6.18,6.08,6.18ZM17.68,16.86Q17.94,16.86,18.08,17.12Q18.22,17.38,18.22,17.78Q18.22,18.74,17.64,18.92Q16.44,19.34,15,19.4Q14.62,21.08,13.5,22.09Q12.38,23.1,10.96,23.1Q9.76,23.1,8.91,22.52Q8.06,21.94,7.62,20.98Q7.18,20.02,7.18,18.9Q7.18,17.38,7.76,16.19Q8.34,15,9.36,14.33Q10.38,13.66,11.62,13.66Q13.14,13.66,14.07,14.71Q15,15.76,15.16,17.3Q16.1,17.24,17.4,16.9Q17.56,16.86,17.68,16.86ZM11.12,20.98Q11.76,20.98,12.23,20.46Q12.7,19.94,12.86,18.96Q12.24,18.54,11.91,17.86Q11.58,17.18,11.58,16.42Q11.58,16.1,11.64,15.78L11.54,15.78Q10.74,15.78,10.21,16.55Q9.68,17.32,9.68,18.72Q9.68,19.82,10.11,20.4Q10.54,20.98,11.12,20.98ZM26.74,18.58Q27,18.58,27.15,18.83Q27.3,19.08,27.3,19.46Q27.3,19.92,27.16,20.18Q27.02,20.44,26.72,20.64Q25,21.8,24.2,22.36L22.92,23.22Q22.16,27.36,20.93,29.73Q19.7,32.1,17.8,32.1Q16.78,32.1,16.14,31.47Q15.5,30.84,15.5,29.82Q15.5,28.4,16.62,26.77Q17.74,25.14,20.82,22.76L20.94,21.98Q20.6,22.52,20.05,22.81Q19.5,23.1,18.96,23.1Q17.72,23.1,16.98,22.2Q16.24,21.3,16.24,19.84Q16.24,18.24,16.98,16.81Q17.72,15.38,18.95,14.51Q20.18,13.64,21.56,13.64Q22,13.64,22.15,13.81Q22.3,13.98,22.4,14.42Q22.78,14.34,23.28,14.34Q23.78,14.34,23.99,14.49Q24.2,14.64,24.2,15.08Q24.2,15.32,24.18,15.46Q24.1,16.08,23.68,18.6Q23.6,19.08,23.51,19.65Q23.42,20.22,23.32,20.86Q24.86,19.66,26.28,18.74Q26.54,18.58,26.74,18.58ZM19.68,21.08Q20.14,21.08,20.56,20.52Q20.98,19.96,21.16,18.92L21.8,15.5Q20.98,15.52,20.28,16.13Q19.58,16.74,19.16,17.74Q18.74,18.74,18.74,19.86Q18.74,20.48,18.99,20.78Q19.24,21.08,19.68,21.08ZM18.02,30.16Q18.52,30.16,19.15,28.96Q19.78,27.76,20.36,25.14Q18.82,26.46,18.14,27.52Q17.46,28.58,17.46,29.38Q17.46,29.72,17.59,29.94Q17.72,30.16,18.02,30.16ZM36.28,16.86Q36.54,16.86,36.68,17.12Q36.82,17.38,36.82,17.78Q36.82,18.74,36.24,18.92Q35.04,19.34,33.6,19.4Q33.22,21.08,32.1,22.09Q30.98,23.1,29.56,23.1Q28.36,23.1,27.51,22.52Q26.66,21.94,26.22,20.98Q25.78,20.02,25.78,18.9Q25.78,17.38,26.36,16.19Q26.94,15,27.96,14.33Q28.98,13.66,30.22,13.66Q31.74,13.66,32.67,14.71Q33.6,15.76,33.76,17.3Q34.7,17.24,36,16.9Q36.16,16.86,36.28,16.86ZM29.72,20.98Q30.36,20.98,30.83,20.46Q31.3,19.94,31.46,18.96Q30.84,18.54,30.51,17.86Q30.18,17.18,30.18,16.42Q30.18,16.1,30.24,15.78L30.14,15.78Q29.34,15.78,28.81,16.55Q28.28,17.32,28.28,18.72Q28.28,19.82,28.71,20.4Q29.14,20.98,29.72,20.98Z" fill="#07C160" fill-opacity="1" style="mix-blend-mode:passthrough"/></g></svg>