<svg xmlns="http://www.w3.org/2000/svg" xmlns:xlink="http://www.w3.org/1999/xlink" fill="none" version="1.1" width="12.25" height="14" viewBox="0 0 12.25 14"><defs><clipPath id="master_svg0_1_132"><rect x="0" y="0" width="12.25" height="14" rx="0"/></clipPath></defs><g clip-path="url(#master_svg0_1_132)"><g transform="matrix(1,0,0,-1,0,28.601531982421875)"><g><path d="M6.258763907470703,28.300765991210938Q5.884313907470703,28.300765991210938,5.643593907470703,28.05466599121094Q5.402863907470703,27.808565991210937,5.402863907470703,27.425765991210938L5.402863907470703,26.906265991210937Q3.905053907470703,26.578065991210938,2.968913907470703,25.402365991210935Q2.0060339074707034,24.226545991210937,1.9792839074707032,22.613265991210938L1.9792839074707032,22.093735991210938Q1.9525439074707032,20.124985991210938,0.6954449074707032,18.621075991210937L0.4814709074707031,18.374985991210938Q0.13376390747070313,17.964825991210937,0.3477377074707031,17.445295991210937Q0.5884579074707031,16.953105991210936,1.123392907470703,16.925765991210938L11.394123907470703,16.925765991210938Q11.929023907470704,16.953105991210936,12.169823907470704,17.445295991210937Q12.383723907470703,17.964825991210937,12.036023907470703,18.374985991210938L11.848823907470702,18.621075991210937Q10.565023907470703,20.097635991210936,10.538223907470703,22.093735991210938L10.538223907470703,22.613265991210938Q10.511523907470703,24.226545991210937,9.548613907470703,25.402365991210935Q8.612473907470703,26.578065991210938,7.114653907470703,26.906265991210937L7.114653907470703,27.425765991210938Q7.114653907470703,27.808565991210937,6.873933907470703,28.05466599121094Q6.6332139074707035,28.300765991210938,6.258763907470703,28.300765991210938ZM7.462363907470703,14.820296991210938Q7.970553907470703,15.339825991210937,7.970553907470703,16.050765991210938L6.258763907470703,16.050765991210938L4.546973907470703,16.050765991210938Q4.546973907470703,15.339825991210937,5.055163907470703,14.820296991210938Q5.563353907470703,14.300765991210938,6.258763907470703,14.300765991210938Q6.9541839074707035,14.300765991210938,7.462363907470703,14.820296991210938Z" fill="#4B5563" fill-opacity="1" style="mix-blend-mode:passthrough"/></g></g></g></svg>