<svg xmlns="http://www.w3.org/2000/svg" xmlns:xlink="http://www.w3.org/1999/xlink" fill="none" version="1.1" width="15.75" height="14" viewBox="0 0 15.75 14"><defs><clipPath id="master_svg0_1_9055"><rect x="0" y="0" width="15.75" height="14" rx="0"/></clipPath></defs><g clip-path="url(#master_svg0_1_9055)"><g transform="matrix(1,0,0,-1,0,26.8515625)"><g><path d="M1.75,25.67578125Q1.01172,25.64848125,0.519531,25.15628125Q0.0273438,24.664081250000002,0,23.92578125L0,23.05078125L15.75,23.05078125L15.75,23.92578125Q15.7227,24.664081250000002,15.2305,25.15628125Q14.7383,25.64848125,14,25.67578125L1.75,25.67578125ZM15.75,20.42578125L0,20.42578125L15.75,20.42578125L0,20.42578125L0,15.17578125Q0.0273438,14.43750125,0.519531,13.94531225Q1.01172,13.45312505,1.75,13.42578125L14,13.42578125Q14.7383,13.45312505,15.2305,13.94531225Q15.7227,14.43750125,15.75,15.17578125L15.75,20.42578125ZM3.0625,16.92578125L4.8125,16.92578125L3.0625,16.92578125L4.8125,16.92578125Q5.22266,16.89844125,5.25,16.48828125Q5.22266,16.07812125,4.8125,16.05078125L3.0625,16.05078125Q2.65234,16.07812125,2.625,16.48828125Q2.65234,16.89844125,3.0625,16.92578125ZM6.125,16.48828125Q6.15234,16.89844125,6.5625,16.92578125L10.0625,16.92578125Q10.4727,16.89844125,10.5,16.48828125Q10.4727,16.07812125,10.0625,16.05078125L6.5625,16.05078125Q6.15234,16.07812125,6.125,16.48828125Z" fill="#9CA3AF" fill-opacity="1" style="mix-blend-mode:passthrough"/></g></g></g></svg>